<?xml version="1.0" encoding="UTF-8"?>
<svg id="peru-svg" xmlns="http://www.w3.org/2000/svg" version="1.1" viewBox="0 0 407.95 595.28">
  <!-- Generator: Adobe Illustrator 30.5.1, SVG Export Plug-In . SVG Version: 2.1.4 Build 3)  -->
  <path class="rpath" title="Amazonas" id="PE-AMA" d="M115.86,220.94l-.97.21-2.15.79-1.96.45v-1.34l-.5-3.36-.84-1.18-1-1v-.28s-3.95-8-3.95-8l-1.31-2-3.08-1.85-1.13-.32-1.06-.59-.56-.83-.32-.73-.42-1.1-.71-1.73-1.74-2.92-3.08-2.3-.52-.32.12-2.23-1.97-1.69-1.69-1.41v-2.82l1.13-2.54.85-2.26.28-2.25,1.13-2.82,1.41-1.97v-2.82l-1.41-.85-1.23-.35-.07-.41-1.52-.08-2.25-2.25v-5.64l1.13-2.26,1.13-1.97.94-3.43-.3-.45-.28-.61-.12-.94-1.08-3.66-.74-1.76.81-.33.54-.63.53-2.6-.08-1.79-.55-1.68-.08-.79v-1.06s.42-.21.42-.21l.58-.71,2.5-5.85.18-.72.08-.83v-1.18s.06-1.01.06-1.01l.41-1.49.29-.61,2.09-2.56,1.47-1.49.22-.3.47-.97.35-1.11.52-2.48.17-1.95-.12-1.06.09-.68.5-1.97.2-.69.53-.57.9-.3.7.07.58.47.27.86-.09,2.08.29.09,2.1-1.52.35-.65-.34-1.24-.71-.66-.39-1.02.49-.84.79-.64,1.11-.64.8-.58,1.58-1.94,1.05-1.89,3.5-3.71,2.11-1.73,1.58-.56,1.17,5.13.13,3.22.08,1.01.32.98,1.25,2.03,1.08,2.17.26.82,1.37,6.14-.18,1.35-.09,1.27.07.8.2.68.44.87,1.22,1.57.36.53.27.59.16.72.28,4.7-.31.64-.47,5.59-.05,1.68.21.71.18,1.07-.27,1.82-.22.93-2.05,4.32-.78,1.24-.6.48-.67.71-.58.76-.58.89-.56,1.38-.44,1.56-.18,1.86.06.98.26,1.49-2.07,2.33v2.25l3.1,2.54.22.11.33,1.79.31.93,1.93,4.17.32.42-.4.2-.8.67-.72.96-.37.64-.18.93-.29,6.73.44,1.16.47,1.02,3.33,6.36,1.33,1.49.85.37.89.23,1.45.3,1.41.33,1.25.31,2.88,1.01,1.57,1.65.8,1.29.39.93.61,1.49.52,2.09-.69,1.31-1.16.95-1.19.74-.76.57-.62.76-.51,1.02-.27.91-.32,1.26-.34.73-.28.16v1.39l-1.69,1.97-1.69.85-2.25-1.69-3.38-.28-1.69.28-1.71,1.44-.42,3.2-.52,1.11-.54,1.55-.05,1.2.23.69Z"/>
  <path class="rpath" title="Ancash" id="PE-ANC" d="M129.01,268.11l1.36,2.48,2.17-.48-.27,1.74v2.67l2.22,1.36-.11,4.18.28.5,1.72,2.93.89,1.13,3.6,1.67,3.19,2.18,4.2,2.35,2.52,1.68-.17,2.69-1.01,1.18-1.68.34-2.37.16-.17.24-1.26,2.82-1.87,4.23-1.55.27-.34,1.68-.5,2.69,1.02-.16,1.67.83,2.02,1.18,1.51,2.52.5,2.35.17,3.86-1.18,1.51-1.34,1.34.67,2.18-.5,2.02-.5,1.18-.88.68v.18l-1.32.41-4.9,1.98-.61.52-.46,1.02-.05,1.12-.2.94-.38.77-.61.75-1.43,1.5-5.81,5.02-2.52.93-2.78.02-.56-3.41.38-1.42-.2-.73-2.18-1.47-.47-2.04.29-1.05.84-1.17,1.51-1.01.17-2.18-1.51-.67-2.02.34-1.01,1.18-1.34,1.17v.08s-.18.07-.18.07l-.18,1.85-.34,2.89-.56,1.39-2.48,1.79-.02-.32-.66-1.59-.89-1.13-2.09-3.08-1.96-3.31-3.44-7.57-2-5.11-.54-1.88.35-1.55-.04-.92-2.97-3.71-1.25-2.01-.76-3.08-.12-3.1-1.1-2.1-1.46-1.06-.91-3-.22-2.08-1.74-1.8-2.09-1.52-.77-3.32h.24l1.05-.23.8-1.93-.21-1.13.13-1.21.84-1.41.78-.79.64-.25,4.49-1.46,4.37-1.53.94-1.76-.02-.75,2.34-6.41,1.16-2.53,2.07-1.85.49-.42,1.08-.69.64-.24,1.14-.76,2.58-3.74,6.21-1.2.71.09.16.95.69,2.05.28.59.68.69,1.6,1.51,1.14.57.65.27,3.88,5.9Z"/>
  <path class="rpath" title="Apurimac" id="PE-APU" d="M274.96,472.21l-1.84-.37-2.51-.22-2.32-1.34-.5.59-.72-.54-2.18.34-3.53,1.34-2.86.17-3.69,1.51-1.34,1.51-1.74.92-.16-.16-.3-.6-.48-2.19-.67-1.16.34-3.02-.5-2.85-1.34-2.52,1.34-2.18.84-1.34,1.01-1.85v-1.53l-.48-.72-1.45-1.94-.56-1.26-.37-1.25-1.92-5.39-1.83-3.6.27-.78,1.14-.17.43-.51-1.7-2.7-1-.38-.66-.25-.57-1.23-.29-.87-.78-5.33-.11-.79-.1-1.01.64-2.97.84-1.88.63-.24.86.49.67,1.23,8.1,5.93.3.05,2.05-.28,2.85-.84.52-1.87.5.64,1.74,1.29,3.7.11,3.68.1,1.04-.42,2.27-.11,3.13,1.15,1.12.59,4.96,3.22,6.97,3.52,3.94,1.37,1.88,1.2,1.84,1.8.36.56.87,1.63,1.16,2.23.21.68.11.79-.08,4.2-.24,1.24-.85,2.78-.54,1.01-.71.42-.54.38-2.32,2.45-.35.58-.21.94-.47.66-1.72.79-1.9.9-2.58,1.35-.9,1.03-.31.8.21.68.52.94.05,1.29-.16.78-1.84.39-2.24.4-2.8-.3-1.15-.7-1.02-.35-.7.07-.93.96Z"/>
  <path class="rpath" title="Arequipa" id="PE-ARE" d="M321.43,554.32l-1.59.73-2.04,1.43-3.22.95-2.55-1.07-.71-.21-1.97-.35-1.87-.34-.97-.43-1.72-1.28-.68-1.26-.51-.61-1.61-1.12-1.26-.59-.99-.4-2.58-1.62-3.41-2.57-2.09-2.08-1.46-2.01-.68-.69-3-1.73-1.12-.52-2.78-.82-1.13-.27-1.14-.04-.66-.04-1.03-.08-.88-.11-1.99-.62-.78-.65-1.05-1.07-1.06-.79-.73-.44-.98-.31-2.82-1.11-6.78-2.94-2.54-2.2-2.98-1.5-1.51-.57-4.82-1.63-1.12-.27-6.32-2.27-4.13-3.34-1.1-.96-1.51-2.06-4.02-2.18-2.73-.82-2.8-.71-1.61-.78-.79-.45-.74-.7-.3-1-.99-1.4-1.13-.6-3.81-1.54-2.01-.91-3.47-1.89-1.76-1-3.7-1.7-2.38-.87-.85-.83-.75-.79.75-1.92,1.01-3.02,2.52-3.19,3.02-1.68,1.46-.73,2.95-.45.07.22.25-.1.2.94.61.64,1.26.35.83.12,2.61.61,2.74.72.97,2.94.82,2.63,3.66,3.63.94.57,1.02.24h.97s.71-.18.71-.18l.93-.61.76-.61.74-.14.49,2.01.18,2.42.32.89,1.09-.02,1.16-.67.24-2.75,1.34-2.85.84-1.85,3.02-1.51,1.85-.84-.17,1.85.84,2.35,1.36.76,4.32-.53,1.79-.84.74-.42,1.37-.67.74.07,1.26.71,1.52-.68.84-1.68,1.34-1.68,2.86-.67,1.51-2.18,2.01-2.69,1.01-2.35-.34-2.18-.17-2.52.67-2.18,1.01-1.68,1.17-.5,1.85-.5.52-2.1.99.09,1.84.37.93-.96.7-.07,1.02.35,1.15.7,2.8.3,2.24-.4,1.84-.39-.24,1.43.42.92,1.23,1.53.72.86.54.37,1.89.44h.83s3.43-.69,3.43-.69l3.29,1.3.56.68.84-.04.8-1.24.57-1.84-.06-1.31-.43-.74-.33-.75.48-.99.9-.06.7.43,2.6,3.27,1.87,2.59-.16,4.92-.42.72.12.79,1,.61.67.24,4.48,1.2,3.08-1.44,1.9-1.14.07-.74,3.35.93,1.17.99.99,1.04.71.42.69-.14.74-.86.5-.42.78-.2.52.19.25,2.34-.34,5.88,2.02,2.35,2.02.5,2.14-.27-.04,1.85.39,3.36.93,1.26.65.71.79.58.63.51.43.5.23.68-.14.73-.84,1.34-.24,1.3,1.69,2.82,1.25.93.37.75-.18.95-.31,1.08-.22,1.42v1.62s.06,1.65.06,1.65l-.04,1.36-.06.89-.25,1.69-.49.8-.83,1-.71.66-.7.66-.38.78v.84l.28.83-1.2.48-2.18-.67-2.52-1.85-1.34-.67h-1.51l-.67,1.18.67,1.01,1.18,1.18.84.5.37.78-1.91.91-3.1,4.23.31,1.99-.31,1.75-.77.37-1.1.39-2.08,1.73-.38.55-.2.7.02.84.27,1.08,1.08,2.34.6.57,1.52,2.08-.92,3.49Z"/>
  <path class="rpath" title="Ayacucho" id="PE-AYA" d="M246.09,497.04l-1.36-.76-.84-2.35.17-1.85-1.85.84-3.02,1.51-.84,1.85-1.34,2.85-.24,2.75-1.16.67-1.09.02-.32-.89-.18-2.42-.49-2.01-.74.14-.76.61-.93.61-.71.2h-.97s-1.02-.25-1.02-.25l-.94-.57-3.66-3.63-.82-2.63-.97-2.94-2.74-.72-2.61-.61-.83-.12-1.26-.35-.61-.64-.2-.94.77-1.48.28-1.11.11-.82v-1.58l-.12-.99-.08-.2-2.13-1.84-1.85-3.69-1.85-3.53-1.01-1.34-1.22-.44-.39.54-.75.62-2.19.23-.04-.18-1.29-.1-1.34-3.69-.5-3.53.84-2.02.34-3.86.28-5.8.23.07v-.14s1.34,0,1.34,0l2.85.84,3.53-1.01.67-1.34,1.18-3.36.17-3.53.1-2.34-.11-.22-.25-1.22.07-1.08.33-1.24-.82-1.09-1.59-2.06-.55-.38-.77-.37-.74-.61,1.04-3.56,3.33-.99.84.38.08.19,1.04-.52,2.02-2.18,1.51-2.02,2.02-1.01,2.35-1.51,1.51-3.02,2.52-.84,1.61-1.15-.7-1.17.25-.94-.66-3.29-.84-3.36-1.01-3.69-.88-3.29-.43-.62-.69-.1-.35-1.19-1.34-1.68-.65-.61.95-2.66.13-.27,2.1.18,1.68-1.18.87-.94v.02s1.48-.16,1.48-.16l2.52,1.85,2.69.5,2.02-.34,1.34-.84h2.18l1.01.17-.09,1.5-.27-.02.65,1.43,4.28,8.45,1.68,1.92.55-.4,1.74,1.64.42.51,1.06,2.22.25.91,2.35,1.57,2.02,3.69,1.51,3.53.84,3.36,2.18,2.85,1.51,2.52-.17.79.02.03-.52,1.87-2.85.84-2.05.28-.3-.05-8.1-5.93-.67-1.23-.86-.49-.63.24-.84,1.88-.64,2.97.1,1.01.11.79.78,5.33.29.87.57,1.23.66.25,1,.38,1.7,2.7-.43.51-1.14.17-.27.78,1.83,3.6,1.92,5.39.37,1.25.56,1.26,1.45,1.94.48.72v1.53l-1.01,1.85-.84,1.34-1.34,2.18,1.34,2.52.5,2.85-.34,3.02.67,1.16.48,2.19.3.6.16.16,1.74-.92,1.34-1.51,3.69-1.51,2.86-.17,3.53-1.34,2.18-.34.72.54.5-.59,2.32,1.34,1.52.13-.52,2.1-1.85.5-1.17.5-1.01,1.68-.67,2.18.17,2.52.34,2.18-1.01,2.35-2.01,2.69-1.51,2.18-2.86.67-1.34,1.68-.84,1.68-1.52.68-1.26-.71-.74-.07-1.37.67-.74.42-1.79.84-4.32.53Z"/>
  <path class="rpath" title="Cajamarca" id="PE-CAJ" d="M86.44,157.91l-1.13,2.26v5.64l2.25,2.25,1.52.08.07.41,1.23.35,1.41.85v2.82l-1.41,1.97-1.13,2.82-.28,2.25-.85,2.26-1.13,2.54v2.82l1.69,1.41,1.97,1.69-.12,2.23.52.32,3.08,2.3,1.74,2.92.71,1.73.42,1.1.32.73.56.83,1.06.59,1.13.32,3.08,1.85,1.31,2,3.94,8v.28s1,1,1,1l.84,1.18.5,3.36v1.34l-.09.02.09.48,1.01,2.18,1.51,2.85,1.51,3.02,1.34,3.53.5,3.02-1.17,1.68-1.34,1.51-1.85,1.85-1.12.38-.46,1.07-1.63.4-1.21-1.06-1.97-.56-2.26,1.97-2.25.85-2.11,1.06-.21-.99-.17-.69-1.3-.81-.16-2.23v-2.26l-1.69-1.13h-1.41l-3.66.85-1.97-.56-.56-2.54-2.25-1.41-1.69.85-1.97,1.13-1.69,1.69-.56,1.13-1.41,1.13-1.97.85-1.79-.11.06-.25-.11-.72-1.29-2.64-2.91-2.44-.64-.23-2.08-.45-.39-.12-1-2.61v-1.97l-.61-.87v-.08s-.27-5.46-.27-5.46l-.05-.86.71-.26.27-1.06-.13-.99.18-1.75,2.07-.99,2.7-2.72.16-1.23-.38-.73-2-.49-2.56-.41-4.32-5.13-.51-4.3.13-.71.53-.89.76-.64.82-.51,1.47-.64,1.1.13h.92l.78-1.15.49-1.32,1.07-5.26-.27-.6-2.9-1.42-.2.04-.47-.51-.59-1.57.13-.1-.33-1-.31-.57-.56-.56-.45-.85-.64-2.71.64-5.12,1.94-2.36.7.1-.18-5.3-1.15-1.58-1.1-3.9,2.64-3.82,1.87-2.08.68-.63.91-.04.64.04,2.67.36,1.19.81.85-.15.81-.75,2.66-3.32.33-2.74v-1.33s.4-.78.4-.78l.96-1.26.54-.5,1.14-.82,1.06-.7.76-.33,1.4-.48.46-.13.74,1.76,1.08,3.66.12.94.28.61.3.45-.94,3.43-1.13,1.97Z"/>
  <path class="rpath" title="Callao" id="PE-CAL" d="M140.37,388.22l-.45.79-.69-.76-.56-.68-.74-.4-1.07-.52-1.69-.21,1.11-2.31-.11-1.65-.27-1.82-1.06-2.97.35-2.15-.34-.98,3.32.25.17,5.88,1.18,2.02,1.51,2.35.5,1.68-1.18,1.51Z"/>
  <path class="rpath" title="Cusco" id="PE-CUS" d="M271.09,361.69l.86.71,2.53,1.36,4.46.51,2.26.98,1.59.42,1.26-.37,2.25-1.46,1.78-1.62,3.63-1.26.38.06v2.83l-.67,3.86-1.51,2.52-2.18,2.35-1.01,1.18,2.18,2.52.59,1-.29,1.31,1.04,1.21.67,3.53,2.69,1.34,3.02,2.18,1.85,2.52,1.01,2.35,2.52,1.18-.85,1.7.21.05.18.14-1.05.96-2.35,1.85.84,1.34,1.34,1.85,1.18,1.18.34,3.02.17,2.02,1.85,1.34,1.27-.13.07.13,2.01-.67,2.69-.17,3.69-1.01,1.51-.17,2.02,2.35,1.68,2.85,2.69,1.85,3.02,1.01,1.85.34.4,1.34.35.18.09,1.67,1.01,3.02.5,2.35,1.51.34,2.01-1.34,1.34-1.18,1.27-1.5.31.05.43-1.41,1.34-.5,2.52,1.01,3.86.34,3.19,1.01,2.2-.1.06-.09,2.61.52-.34,4.7-.17,3.53-3.19,3.53-2.69,3.02-2.35,2.86-1.01,1.85-2.35,2.69-2.69,1.18-.34,2.35-.17,2.01.67,3.02-.5,3.19-.5,3.02-1.01,2.52-1.85,3.02-.5,3.02-.84,2.18-2.18,1.51-.84,1.34.74.74v.14s.97,1.53.97,1.53l.77.85.85.21,1.49,2.23.55,3.43-.43.83-.64.95-.19.68.23,3.57.31.59.57.81.2.7.11,1.02v.67s-.19,2.75-.19,2.75l-1.51.82.17,1.49-.02.83-2.14.27-2.02-.5-2.02-2.35.34-5.88-.25-2.34-.52-.19-.78.2-.5.42-.74.86-.69.14-.71-.42-.99-1.04-1.17-.99-3.35-.93-.07.74-1.9,1.14-3.08,1.44-4.48-1.2-.67-.24-1-.61-.12-.79.42-.72.16-4.92-1.87-2.59-2.6-3.27-.7-.43-.9.06-.48.99.33.75.43.74.06,1.31-.57,1.84-.8,1.24-.84.04-.56-.68-3.29-1.3-3.43.68h-.83s-1.89-.43-1.89-.43l-.54-.37-.72-.86-1.23-1.53-.42-.92.24-1.43.16-.78-.05-1.29-.52-.94-.21-.68.31-.8.9-1.03,2.58-1.35,1.9-.9,1.72-.79.47-.66.21-.94.35-.58,2.32-2.45.54-.38.71-.42.54-1.01.85-2.78.24-1.24.08-4.2-.11-.79-.21-.68-1.16-2.23-.87-1.63-.36-.56-1.84-1.8-1.88-1.2-3.94-1.37-6.97-3.52-4.96-3.22-1.12-.59-3.13-1.15-2.27.11-1.04.42-3.68-.1-3.7-.11-1.74-1.29-.52-.66.17-.79-1.51-2.52-2.18-2.85-.84-3.36-1.51-3.53-2.02-3.69-2.35-1.57-.25-.91-1.06-2.22-.42-.51-1.74-1.64-.55.4-1.68-1.92-4.28-8.45-.65-1.43.27.02.08-1.27,3.37-.9,2.18-.17,1.51.34.85.71h.05s.79,1.64.79,1.64l1.01.84,2.35-1.68,2.35-1.85,2.52-2.02,1.51-2.02-1.34-3.19-1.34-2.01-.34-1.18-.87-1.27-1.65-.41-1.01-.67-.5-2.69.41-1.74-.25-.09.68-2.37.62-2.28.21-.21.61-.75.37-.53.52-.85,1.19-2.44.37-.99.27-.99.69.28,5.05-.6.78-.11,2.32-.36,1.15-.2,1.04-.31.81-.29.69-.56,2.44-.46.92,2.18Z"/>
  <path class="rpath" title="Huanuco" id="PE-HUC" d="M134.38,280.05l.11-4.18-2.22-1.36v-2.67l.27-1.74,1.26-.28,2.54-1.69,1.69,2.61.39-.17.94-.04.61.4.29.74h4.58l-.15-.58,1.24-.14,2.82-.56,2.25.56,3.1-1.13,2.26.85,1.41.85,1.13-2.26,1.13-1.41,1.33.67.06-.38,1.46,1.18,1.02.37,1.23,2.11,2.07,5.22.83,1.12,1.62.19.57-.42.55-.89-.6-2.4-.85-7.05,2.82-2.82,3.02-1.09,1.1,1.73-.11.14-.33.75-.29,2-.14,1.38-.27.93-.1.35.27,1.56.74,1.95.04-.02-.1,2.6-.51,3.04.99,3.68,1.78,3.98.53.57.49,1.08.16.89.59.52.5,1.01,1.68,3.02,1.34,2.35,1.34,1.85,1.68.53.61-.32,1.5-1.19,3.13-1.63,1.82.44,2.52-.67,1.68-1.51,1.34-1.34-.17-3.36,1.68-2.02.41-2.95.26-.36,2.02-.39,2.35-.34.84,1.68h1.51l.84-1.51.17-2.18,1.18-3.19.69-2.63.32-.22,2.6-1.06.72-.18,1.09-.08,1.78.13,1.23.15.59.31.79.77.48,1.1.21,1.08-.1.83-1.53,1-1.89,3.67-.51,2.43.57,2.44v3.36l1.34,1.68.67,2.52-1.34,1.68-.67,1.85.04.46-.71.71-1.85,2.18-1.68,1.85-.67,2.35-1.18,1.34-1.01,1.01-2.02.17-1.68,1.18-1.01.5-.49.97-.57-.06-.62.94-1.68,1.17-1.51-1.17-.73-1.09-.3.08-.82-.67-2.02-.17-1.68,1.34-2.02,1.51-1.91,1.53-.65.11-.4.03-2.58,2.36-2.18,1.85-1.68,1.18-1.68,2.35-1.51,2.52-1.11.61-.74.06-.84,1.34-1.68.67-.5,2.52-.52,1.49-.17.07-.15.45-2.35-.17-3.02-.84-1.68-.5-3.19-.34-1.51-.67-1.68-1.68-2.35-.17-2.52.84-2.52,1.68-2.18,1.51-2.86.67-.09-.1-.46.06-.83-.31-.62-.51-.33-.56-.29-1.58-.72-.49-1.4.32-.82-.5-.37-.96.03-.56v-.18l.88-.68.5-1.18.5-2.02-.67-2.18,1.34-1.34,1.18-1.51-.17-3.86-.5-2.35-1.51-2.52-2.02-1.18-1.67-.83-1.02.16.5-2.69.34-1.68,1.55-.27,1.87-4.23,1.26-2.82.17-.24,2.37-.16,1.68-.34,1.01-1.18.17-2.69-2.52-1.68-4.2-2.35-3.19-2.18-3.6-1.67-.89-1.13-1.72-2.93-.28-.5Z"/>
  <path class="rpath" title="Huancavelica" id="PE-HUV" d="M227.12,415.28l-1.61,1.15-2.52.84-1.51,3.02-2.35,1.51-2.02,1.01-1.51,2.02-2.02,2.18-1.04.52-.08-.19-.84-.38-3.33.99-1.04,3.56.74.61.77.37.55.38,1.59,2.06.82,1.09-.33,1.24-.07,1.08.25,1.22.11.22-.1,2.34-.17,3.53-1.18,3.36-.67,1.34-3.53,1.01-2.85-.84h-1.34v.14s-1.01-.31-1.01-.31h-2.35l-1.3.61-.24-.27h-1.98l-2.69-1.51-.73-1.19-.18-.03-3.28-1.53-.98-1.75-.16-3.19,1.03-1.97-.78-3.93.81-.99.67-.49.37-.55.48-1.12v-.78s-.26-.11-.26-.11l.48-1.35-.17-1.51-1.01-1.01-2.02.17-1.68,1.34-1.23.9-.27-.02-1.47.06-1.03.1h-.79s-.58-.3-.58-.3l-.14-.47-1.05.06-1.01-1.34,1.34-1.85,1.34-2.35.5-2.85v-2.02l.27-1.54h0s-.1-.98-.1-.98l2.02-.84.84-1.85.84-1.18,1.01-1.85,1.18-1.18-.5-1.51.34-2.18.68-1.47-.51-.34-.04-.12h2.55l3.36-3.53,3.86-3.36,3.53-3.19,2.85-4.37.25-.62.09-.05.34-3.86,1.85-1.18,4.3-.67,4.6.17,1.51-.17.6.45.25.05h2.51l4.53,1.01,1.85,1.68.5,2.18-1.19.32.88,1.5-.87.94-1.68,1.18-2.1-.18-.13.27-.95,2.66.65.61,1.34,1.68.35,1.19.69.1.43.62.88,3.29,1.01,3.69.84,3.36.66,3.29-.25.94.7,1.17Z"/>
  <path class="rpath" title="Ica" id="PE-ICA" d="M175.35,416.09l1.85.67h3.19l.24.84.14-.02-.27,1.54v2.02l-.5,2.85-1.34,2.35-1.34,1.85,1.01,1.34,1.05-.06.14.47.58.31h.79s1.03-.11,1.03-.11l1.47-.06.27.02,1.23-.9,1.68-1.34,2.02-.17,1.01,1.01.17,1.51-.48,1.35.26.11v.78s-.48,1.12-.48,1.12l-.37.55-.67.49-.81.99.78,3.93-1.03,1.97.16,3.19.98,1.75,3.28,1.53.18.03.73,1.19,2.69,1.51h1.98l.24.27,1.3-.61h2.35l.79.24-.28,5.8-.34,3.86-.84,2.02.5,3.53,1.34,3.69,1.29.1.04.18,2.19-.23.75-.62.39-.54,1.22.44,1.01,1.34,1.85,3.53,1.85,3.69,2.13,1.84.08.2.12.99v1.58l-.11.82-.28,1.11-.77,1.48-.25.1-.07-.22-2.95.45-1.46.73-3.02,1.68-2.52,3.19-1.01,3.02-.75,1.92-.12-.12-1.67-2.83-2.37-3.47-.42-.51-.54-.61-1.13-1.04-3.21-2.28-3.45-5.22-.59-.69-.85-.66-.75-.43-1.24-.6-3.36-1.96-4.01-2.37-3.02-2.47-.1-1.23-.16-1.29-1.39-3.4-2.72-2.74-.52-.4-1.03-2.09-.71-2.73-2.03-1.85-.84-.53-2.43-1.03.2-7.35-1.37-.88-1.45-.48.51-1.66,1.36-.51.86.44.94,1.36,1.12-2.87.29-.99.88-3.1.24-1.85.41-4.06-.49-1.3-1.56-2.83-.26-.27-.24-.34.08-1.53,1.18-1.02,1.34-3.02,2.18-1.34,2.35-1.68,1.68-1.51,2.02-.84Z"/>
  <path class="rpath" title="Junin" id="PE-JUN" d="M204.69,341.26l.44.21,1.57-.1,3.86,2.02,2.35,1.18,2.52,1.18,1.37.98,1.47-.15,1.09-.03,1.39.12.4,2.08.28,1.43.16.48,2.25.8h3.36l4.53-.34.68.2,1.15-.33,2.67-.41.36,2.05.84,2.52,3.19.67,1.51-.84.67-2.18.17-3.02v-1.68l-.07-1.42.28-.39.67-1.33.73-1.37,4.11,1.25,1.13.9,1.18,1.54.13.21.08,2.21.34,2.85,1.8.5-.02.08,1.4,1.1.67,4.87-.27,3,.06.04-.27.99-.37.99-1.19,2.44-.52.85-.37.53-.61.75-.21.21-.62,2.28-.68,2.37.25.09-.41,1.74.5,2.69,1.01.67,1.65.41.87,1.27.34,1.18,1.34,2.01,1.34,3.19-1.51,2.02-2.52,2.02-2.35,1.85-2.35,1.68-1.01-.84-.79-1.66h-.05s-.85-.69-.85-.69l-1.51-.34-2.18.17-3.37.9.02-.23-1.01-.17h-2.18l-1.34.84-2.02.34-2.69-.5-2.52-1.85-1.47.16-.89-1.52,1.19-.32-.5-2.18-1.85-1.68-4.53-1.01h-2.51l-.25-.05-.6-.45-1.51.17-4.6-.17-4.3.67-1.85,1.18-.34,3.86-.09.05-.25.62-2.85,4.37-3.53,3.19-3.86,3.36-3.36,3.53h-2.55l-.25-.72.06-.34-.64-1.38-.17-4.2.64-3.3-.18-.32-1.86-3.48.08-.75.52-.79-.25-.98-.68-.54-.1-3.27h-4.87l-.92.32-1.09-.5-.96-.26-.61.12-1.13-.7-3.06-.99-.22-.57-2.54-3.26-1.94-1.9-.25-.61-.15-2.19-.09-1.98-.27-1.07-.74-.51-.7.11-1.16-.04-1.41-.6-1.08-1.83-3.09-6.29-.4-3.99.02-.91.21-1.63.08-.63-.29-.71,1.99-.3,1.85.5.62,1.08.33-.05.51-.07,1.23.88,2.18-.34,1.68-1.68,2.35.34,2.35-1.01.67-1.68-.34-1.51-2.69.17-.19-1.81h0l.36-1.22,1.01-.34,1.18-1.01,1.68.17,1.51,1.18,2.35-.5,2.52-.5,2.02-1.01,3.53-1.34,2.18-1.18h.84l1.34,1.51,1.01,1.13.68-.06,1.48.14.86-.02.88-.24.72-.27.58-1.02,1.34-.84,2.69-1.34,2.18-.34.96.37,1.23.03Z"/>
  <path class="rpath" title="La Libertad" id="PE-LAL" d="M124.21,242.12l.17,2.85.34,3.36,1.39.22.06.22,1.23.06,1.18,1.01.5,3.19.38,2.42h.39l3.38-1.41,2.54-.28,1.97,1.41,3.38.56,1.69,2.54,1.13,1.69.85,3.1-.69.35.23,1.07-.02.61-.93.23-3.1.56-2.54.85-1.41,1.41-2.54,1.69-3.43.76-1.36-2.48-3.88-5.9-.65-.27-1.14-.57-1.6-1.51-.68-.69-.28-.59-.69-2.05-.16-.95-.71-.09-6.21,1.2-2.58,3.74-1.14.76-.64.24-1.08.69-.49.42-2.07,1.85-1.16,2.53-2.34,6.41.02.75-.94,1.76-4.37,1.53-4.49,1.46-.64.25-.78.79-.84,1.41-.13,1.21.21,1.13-.8,1.93-1.05.23h-.24l.07-.21-.04-1.14-2.03-3.11-.93-3.42.12-.79-.05-1.55-.33-1.26-.29-.76-2.31-2.61-2.62-2.86.28-.8-.05-.66-2.44-4.9-5.27-5.69-.57-.55-.73-.39-.64-.26-2.46-2.04-.71-.61-.66-.7-1.08-1.58-1.79-3.1-.53-2.05-.37-1.15-1.43-2.55-1.04-1.2-.55-.58-1.19-1.93-.17-1.1.27-.94-.67-2.04-.25-.64-.8-1.87-.36-.54-1.92-1.91.85-.98,4.49-4.64,1.3-1.16.73-.39,3.17.79,1.06.88.05.86.28,5.46v.08s.6.87.6.87v1.97l1,2.61.39.12,2.08.45.64.23,2.91,2.44,1.29,2.64.11.72-.06.25,1.79.11,1.97-.85,1.41-1.13.56-1.13,1.69-1.69,1.97-1.13,1.69-.85,2.25,1.41.56,2.54,1.97.56,3.66-.85h1.41l1.69,1.13v2.26l.16,2.23,1.3.81.17.69.21.99,2.11-1.06,2.25-.85,2.26-1.97,1.97.56,1.21,1.06,1.63-.4.46-1.07,1.12-.38,1.85-1.85,1.34-1.51,1.17-1.68-.5-3.02-1.34-3.53-1.51-3.02-1.51-2.85-1.01-2.18-.09-.48,2.05-.47,2.15-.79.97-.21.16.47.5.57.48.3,1.32,2.32,2.85,3.45.49.91-.18.91-.84,1.66.13,1.68.85,2.27.5,1.04,1.06.68.32.15.2,2.9.5,1.85Z"/>
  <path class="rpath" title="Lambayeque" id="PE-LAM" d="M57.42,187.35l.89,1.06.13-.03.96-.22,2.3.87.47,1.02.69-.41,2.46-1.94.59,1.57.47.51.2-.04,2.9,1.42.27.6-1.07,5.26-.49,1.32-.78,1.15h-.92l-1.1-.13-1.47.64-.82.51-.76.64-.53.89-.13.71.51,4.3,4.32,5.13,2.56.41,2,.49.38.73-.16,1.23-2.7,2.72-2.07.99-.18,1.75.13.99-.27,1.06-.71.26-1.06-.88-3.17-.79-.73.39-1.3,1.16-4.49,4.64-.85.98-.05-.93-.14-1.15-.51-.82-2.79-3.37-.73-.51-1.18-.73-1.77-1.83-.45-.64-.52-1.89-.55-1.39-4.38-3.95-.85-.5-1.59-.69-3.99-1.89-4.35-2.4-2.42-1.53-.97-1.06-.76-.58-.85-.53.33-.22.83-1.13,1.68-2.47,1.12-1.79.33-1.25.77-1.51,1.79-2.27,1.38-1.55.72-.69.58-.41,1.14-.48,2.9-.9.59-.55,1.77-1.42,1.49-1.13,1.98-2.48.64-1.13.21-2.55.56-.82-.05-.7.38-.64.61.38.76.56,3.59,2.87,1.55,2.87.62,1.83,1.31.58,1.13.35.85.64.78,1.42Z"/>
  <path class="rpath" id="PE-LIM" title="Lima" d="M147.65,398.58l1.17,3,3.64,7,1.11,1.27,2.65,3.77.23,2.06.25,1.09.41,1.51.46.66.45.47,1.03.9.86.8.82,1,2.6,3.28,1.3.11h0s1.18-1.01,1.18-1.01l1.34-3.02,2.18-1.34,2.35-1.68,1.68-1.51,2.02-.84,1.85.67h3.19l.24.84.15-.02-.1-.98,2.02-.84.84-1.85.84-1.18,1.01-1.85,1.18-1.18-.5-1.51.34-2.18.68-1.47-.51-.34-.29-.84.06-.34-.64-1.38-.17-4.2.64-3.3-.18-.32-1.86-3.48.08-.75.52-.79-.24-.98-.68-.54-.1-3.27h-4.87l-.92.32-1.09-.5-.96-.26-.61.12-1.13-.7-3.06-.99-.22-.57-2.54-3.26-1.94-1.9-.25-.61-.15-2.19-.09-1.98-.27-1.07-.74-.51-.7.11-1.16-.04-1.41-.6-1.08-1.83-3.09-6.29-.4-3.99.02-.91.21-1.63.08-.63-.51-1.24-1.38-.89-.52-.4-.4-.93.2-.93.04-1.26-.07-.8-.04-1.07-.24-.96-1.37-1.46-.46-.66-.31-1.01-.1-1-.25-1.08-.32-.78-.84-1.07-.39-.83-.11-1.21-.33-1.1-.5-1.27-.56-.63-.46.06-.83-.31-.62-.51-.33-.56-.29-1.58-.72-.49-1.4.32-.82-.5-.37-.96.03-.56-1.32.41-4.9,1.98-.61.52-.46,1.02-.05,1.12-.2.94-.38.77-.61.75-1.43,1.5-5.81,5.02-2.52.93-2.78.02-.56-3.41.38-1.42-.2-.73-2.18-1.47-.47-2.04.29-1.05.84-1.17,1.51-1.01.17-2.18-1.51-.67-2.02.34-1.01,1.18-1.34,1.17v.08s-.18.07-.18.07l-.18,1.85-.34,2.89-.56,1.39-2.48,1.79,2.15,2.77,1.42,1.69,2.04,3.3,1.29,2.68,2.2,7.99-.17,1.16-1.06.11-.53,1.07.57,1.47,1.5,1.06,1.06.33.62.29,2.05,1.15,3.54,2.15,2.24,1.95,2.11,3.14h0s1.22,1.81,1.22,1.81l.49,1.4,3.32.25.17,5.88,1.18,2.02,1.51,2.35.5,1.68-1.18,1.51-.45.79,3.59,3.95,1.85,1.58,1.18,1.33.7.98.33,1.55.07.19"/>
  <path class="rpath" title="Loreto" id="PE-LOR" d="M200.59.27l3.71,2.48,1.95,1.51.72.9,2.5,1.07.61-.23.91-.62.66-.17.63.24.74.88.5.81.4.92.13.7.04.7.23.89,2.43,1.43.82-.73,1.62,1.09,5.23,4,.57.79.19.3.39,1.77.61,2.34.73,2.4.83.89,1.36,1.4-.53,1.44-.6,1,.88,1.8.47.84.81.7,4.42,1.21,6.73,4.33.87,1.8,2.85.78,1.26-.34,1.91.17,3.14,2.9.26,1.96.15,1,.73.81,1.38,1.88.96,1.84-.96.84-.32.57-.66,2.99.54.59,2.38,1.59,3.83,1.81,1.86-.89,1.34-1.25,2.06,1.36,1.36,2.37,1.03,7.08-.63,1.75-.75,1.01-.98.46.53,2.63.34.58.99.78,2.27,1.25.9-.28,1.3-.05,1.03,1.71.66,1.68,2.16-.52,4.22-1.59,2.99-1.05,4.47,1.09,3.95,1.33.91.27,2.31.24,5.05-2.91,2.82-1.22,1.63.3,1.33-.04.59-1.83,2.02-2.85,2.78-2.29.92-.36.32.59-.03.94.32.92,3.13.37,1.81-.07,3.46,1.49,1.62,2.1,5.57.43,2.79-1.55,4-1.07,3.77-1.69,4.86,3.19h2.98l2.88,2.52,3.24,1.44,1.92,1.71.26-.16.65-.18,1.29.28,2.46,2.2.32,1.25,5.71-1.14v1.8l-1.18,4-11.06,17.21-1.12,1.75-3.81,5.88-1.98,3.05-1.43,2.19-1.67,2.62,3.74,1.59,2.56.95h.87s.69-.29.69-.29l1.78-1.08.56-.44,1.42-.47.66.07.6.29,2.84,2.3,1.69,2.11.62,1.2.33.99.26.83.26.61.42.69,2.64,2.18.63.43,1.04.71,1.02,1.07v.88s.21.82.21.82l-.33.66-.61.94-1.2.81-5.8-.17-1.86-1.32-1.46-1.32-.24-.63.33-1-.04-.79-.66-1.1-3.5-.25-1.15.73-1.11.8-2.7.51-1.33-1.12-4.39-.41-1.54.73-.7.53-1.18,2.05-.12.93-2.69,3.26h-1.18s-1.91,1.69-1.91,1.69h-3.6l-3.24,1.8-4.68.72-4.68,1.8-4.68-.36h-4.68l-2.88,2.52-3.24,2.88-3.6,2.52-4.68,1.8-5.04,3.24-5.04,5.4-4.68,1.8-3.6,5.76-1.08,5.4-1.08,6.84-4.32,3.6-3.96,6.48,3.24,7.92,1.44,5.04-4.68,4.68-5.04,2.52-7.92,3.6-3.24,1.8-1.44,7.56-1.57.45.03.28.63.47,1.78,2.76.45,2.77-1.04.79-6.19.81.02,2.69-1.02,2.71-.79.05-.31-.36-.59-.45-.09-.05-.06-1.02-2.18-1.68-2.18-1.85-3.19-.34-2.35-.17-1.17-1.34-1.68-.17-1.18.34-.67,1.18-.05.21-.09-.07-.09-.06-1.29,1.93-1.18,1.17-.62,1.08.27,1.45.22,1.33.49,6.37-.12,2.83-.16.83-.57.84-1.01.71-.57.32-.8,1.87-1.85,1.01-4.2.34-3.36-.34-.32-.38-.39.12-.96-.58-3.69-.34-1.68,2.02-1.51,1.34-.82.91-1.07-.12-2.08-.36-2.01,1.51-.74,1.41v2.85l-.17,2.02v1.95l-1.11.86-1.72.43-.1-.08-.76-.72-.74-.66-1.03-.62h-1.4l-4.23,3.68-1.96,2.09-.59.75-.57.47-1.18.51-.74-1.95-.27-1.56.1-.35.27-.93.14-1.38.29-2,.33-.75.11-.14-1.31-2.06.56-4.23,1.41-2.54,1.8-1.67-.36-.68-.75-1.6h-2.22l-.55-1.92-1.99-2.6-.92-3.06-.77-5.2-2.6-2.6-.92-2.75v-2.45l.12-2.02,2.11-.7.09-.54.18-.72,3.11-2.22v-2.82l-.85-6.77,1.55-1.55.6-.19,1.32-.08.94.21.94.27.88.36.86.62.85.64.34.43,3.56-.15,2.82-.56,1.21-.48.04-.06.29-.9.53-2.51-.09-1.26.04-1.09.14-1.91.2-2.28.24-1.58.3-1.53.06-.85-.11-.97-.31-.71,1.41-1.64.28-2.82-1.69-2.25-2.82-1.41-3.95.85-2.1,1.6-2.9-.61-.94-.12-2.37.02-1.44.11-1.82,1.26-3.1,1.97-2.26-1.13-2.25-2.82-3.1-2.82-2.9-.29-.63.5-1.14.79-1.13.51-1.78.27-1.59-.65-1.6-1.12-.63-.96-.72-1.44-.25-1.18-.67-1.9-.49-.89-.52-.93-3.26-2.24-1.61-.51-.89.09-1.25.05-1.56-.04-2.81-.2-.9-.22-.94-.27-.85-.44-1.33-1.47-.62-.71-.68-1.06-.97-.78-1.57-.73-2.01-.64-1.88-.61-1.01-.61-1.83-1.36-.31-.6-.32-.42-1.93-4.17-.31-.93-.33-1.79-.22-.11-3.1-2.54v-2.25l2.07-2.33-.26-1.49-.06-.98.18-1.86.44-1.56.56-1.38.58-.89.58-.76.67-.71.6-.48.78-1.24,2.05-4.33.22-.93.27-1.82-.18-1.07-.21-.71.05-1.68.47-5.59.31-.64-.28-4.7-.16-.72-.27-.59-.36-.53-1.22-1.57-.44-.87-.2-.68-.07-.8.09-1.27.18-1.35-1.37-6.14-.26-.82-1.08-2.17-1.25-2.03-.32-.98-.08-1.01-.13-3.22-1.17-5.13.51-.15,11.38-3.89,6.92-2.37,5.8-1.99,4.46-1.53,7.82-2.7,8.24-6.12,10.58-7.95,3.1-3.66,6.29-7.48,1.98-2.36,2.97-3.56,1.26-1.3.78-.5.33-.83,2.25-8.67.7-2.82.56-2.17.39-1.51.95-3.67.81.89.56.54.94.38,3.64-.33-1.49-4.93-.94-2.68.3-2.37.2-.19.33-.14.58-.52.15-2.19-.58-1.21-2.48-1.86-.77.06-.82-.63-.77-.87-.68-1.13-.45-1.21-.34-1.64-.18-.68-.53-1.31-2.89-1.66-1.71-.26.28-2.09,3.1.33,1.26.86,1.76.65,2.42-.42,1.43-.53.62-.48.86.09,1.07-.84.3-.88.37-1,2.18.27Z"/>
  <path class="rpath" title="Madre de Dios" id="PE-MDD" d="M345.13,350.78l.02,1.1,1.59-1.24,1.77-1.15.87.58.9.9.45.67.16.2,3.42-.28,4.08-.61,4.08-.61,2.5-.21.42-.26.98-.6.62-.28.77-.19,4.68.35,1.36,1.2,1.58-.1.72-.17,2.57-.1h.6s-.03.03-.03.03l2.18,3.62,2.18,3.61,5.89,9.72,1.1,1.81,1.1,1.81,3.56,5.88.96,1.58,1.24,2.04.44.68.96,1.58,1.03,1.75,1.44,2.89,1.43,2.94,2.76,5.66.42.91,1.21,2.49.68,1.36.12.17-2.24,2.73-.79,1.94-1.51,2.91-2.05.8.29,2.59-.61,2.65-2.69,1.95-2.47,1.57-3.19,1.18-2.69,1.34-2.52.67-3.36,1.34-1.85.84-1.85,2.01-3.69.84-3.6.31-.69-.34-6.46-1.15-3.69-2.02-4.2-1.85-4.7-.5-2.03.38v-.21s-2.59-.52-2.59-.52l-.06.09-2.2.1-3.19-1.01-3.86-.34-2.52-1.01-1.34.5-.43,1.41-.31-.05-1.27,1.5-1.34,1.18-2.01,1.34-1.51-.34-.5-2.35-1.01-3.02-.09-1.67-.35-.18-.4-1.34-1.85-.34-3.02-1.01-2.69-1.85-1.68-2.85-2.02-2.35-1.51.17-3.69,1.01-2.69.17-2.01.67-.07-.13-1.27.13-1.85-1.34-.17-2.02-.34-3.02-1.18-1.18-1.34-1.85-.84-1.34,2.35-1.85,1.05-.96-.18-.14-.21-.05.85-1.7-2.52-1.18-1.01-2.35-1.85-2.52-3.02-2.18-2.69-1.34-.67-3.53-1.04-1.21.29-1.31-.59-1-2.18-2.52,1.01-1.18,2.18-2.35,1.51-2.52.67-3.86v-2.83l.35.05.97-.84,1.38-1.99.76-2.75.46-1.84-1.22-1.07.31-1.53,1.62-.2h0s2.37.36,2.37.36l2.1-.27.16.13,1.23.2h1.75l2.23-.18.96-.16.16-.07,3.5.19,8.72-.31,1.38-1.38,1.99-1.84.61-1.84.22-2.89.18-.04.05-1.51,1.07-3.21,1.07-1.38,2.14-2.14,3.52-1.38,3.82-3.98,2.45-2.35v-.09l1.83-.77,5-7.94-.02,3.35v3.81s0,4.93,0,4.93l-.03,8.75-.02,5.61-.03,4.26v2.02Z"/>
  <path class="rpath" title="Moquegua" id="PE-MOQ" d="M339.81,515.57l.15.18,1.85-.33,2.52-.17,2.02.17.54.54.2-.06,4.84,1.29.62.82,1.44,4.09.32,2.92-.17.74-.05.9,1.13,3.44.3.84,3.41,3.64,2.22,2.14.98.41,1.87.32.88.96-2.65,2.55-.12,2.49-.17,2.69-.94,1.13.09.15-.99.06-1.68.5-.45-1.12-.56-.11v-1.13l-.34-2.35-1.51-.84-1.25.34-.21-.11-1.63.05-1.02.58-1.07,1.36-.78,2.43-.13.93.53,1.26.23.64-.03.98-1.81,2.23-2.02,2.35-.7.44-1.12.43-1.08.29-.53.39-.65.98-1.12,2.11-1.55,3.06-1.08,2.15-.61.88v1.57l-1.68,3.86-1.85,1.68-2.86,1.17-2.18,1.34h-1.41l-.04-.03-.32-.39-.28-.58-.76-.58-2.92-1.69-1.76-3-.34-2.53-.25-1.75-.78-3.17-.61-.32-2.17-1.98-.23-.31-.04-.64-1.59-.96-1.29-.54,3.22-.95,2.04-1.43,1.59-.73.92-3.49-1.52-2.08-.6-.57-1.08-2.34-.27-1.08-.02-.84.2-.7.38-.55,2.08-1.73,1.1-.39.77-.37.31-1.75-.31-1.99,3.1-4.23,1.91-.91-.37-.78-.84-.5-1.18-1.18-.67-1.01.67-1.18h1.51l1.34.67,2.52,1.85,2.18.67,1.2-.48-.28-.83v-.84l.38-.78.7-.66.71-.66.83-1,.49-.8.25-1.69.06-.89.04-1.36-.07-1.65v-1.62s.23-1.42.23-1.42l.87-.12.8.51Z"/>
  <path class="rpath" title="Pasco" id="PE-PAS" d="M161.47,354.71l-.62-1.08-1.85-.5-1.99.3-.22-.54-1.38-.89-.52-.4-.4-.93.2-.93.04-1.26-.07-.8-.04-1.07-.24-.96-1.37-1.46-.46-.66-.31-1.01-.1-1-.25-1.08-.32-.78-.84-1.07-.39-.83-.11-1.21-.33-1.1-.5-1.27-.47-.53,2.86-.67,2.18-1.51,2.52-1.68,2.52-.84,2.35.17,1.68,1.68,1.51.67,3.19.34,1.68.5,3.02.84,2.35.17.15-.45.17-.07.52-1.49.5-2.52,1.68-.67.84-1.34.74-.06,1.11-.61,1.51-2.52,1.68-2.35,1.68-1.18,2.18-1.85,2.58-2.36.4-.03.65-.11,1.91-1.53,2.02-1.51,1.68-1.34,2.02.17.82.67.3-.08.73,1.09,1.51,1.17,1.68-1.17.62-.94.57.06.49-.97,1.01-.5,1.68-1.18,2.02-.17,1.01-1.01,1.18-1.34.67-2.35,1.68-1.85,1.85-2.18.71-.71.13,1.39,1.34,1.85,1.68,1.17.67,2.18,1.01,2.01-.19,2.79.17.46.62,1.72,1.25.57.67,2.52.17,2.86,2.02,2.69,1.51,1.18,2.18.34-.17,2.52-.84,1.85-.34,2.18.84,2.18,1.51,1.51.84.5.5,1.34-.17,1.51-.99.49.1.13-.15.68-1.04.38-.98.32-1.83.95-2.24,2.22-1,1.16-.4.53-2.18,1.88-1.28.58-1.39-.12-1.09.03-1.47.15-1.37-.98-2.52-1.18-2.35-1.18-3.86-2.02-1.57.1-.44-.21-1.23-.03-.96-.37-2.18.34-2.69,1.34-1.34.84-.58,1.02-.72.27-.88.24-.86.02-1.48-.14-.68.06-1.01-1.13-1.34-1.51h-.84l-2.18,1.18-3.53,1.34-2.02,1.01-2.52.5-2.35.5-1.51-1.18-1.68-.17-1.18,1.01-1.01.34-.36,1.22h0l.19,1.81,2.69-.17.34,1.51-.67,1.68-2.35,1.01-2.35-.34-1.68,1.68-2.18.34-1.23-.88-.51.07-.33.05Z"/>
  <path class="rpath" title="Piura" id="PE-PIU" d="M8.43,194.3l-.54-1-.88-2,.5-2,1.25-1.5,2.13.12,1.5-.5.6-1.19h.02s.39-.03.39-.03l.25-.78.88-.75,1-2.75-.25-3.26-1.25-2.88-2.38-3.76-2.25-1.38-2.63-1.25-2.75-2.25.25-1.75,1.13-1.88.93-.5.43-2.25.82-.38,1.2.14.59-.18-1.09-1.09-1.25-2.25-3.26-2.5-3.76-4.13.13-2.88,1-5.26.88-4.13,1.21-1.64.4-1.05.6-.94,4.5-4.13.94-.62.71,2.14,2.08,1.7h4.25l4.63-.28,2.55-.94.28-.74.39-.07,1.87-1.65.49.85.66.85,1.89,2.27.76,1.79.19,1.38-1.24,1.84-.04.89.56.81,1.73.95.61.22,1.02-.42.78-.42,2.31-1.76,1.15-1.06.6-.65.9-.09,1.79.38,1.7,1.13,2.93,1.13,2.64.94,1.61,1.42.92-.65.08.04,1.02.1,1.08-.34,1.06.37,3.31.09,1.75.54.65.58.62,1.93.14,1.25,2.04,4.67.21.99,2.55,2.84,2.56,2.51,1.73-.02-.68.63-1.87,2.08-2.64,3.82,1.1,3.9,1.15,1.58.18,5.3-.7-.1-1.94,2.36-.64,5.12.64,2.71.45.85.56.56.31.57.33,1-2.59,2.05-.69.41-.47-1.02-2.3-.87-.96.22-.13.03-.89-1.06-.78-1.42-.85-.64-1.13-.35-1.31-.58-.62-1.83-1.55-2.87-3.59-2.87-.76-.57-.61-.38-.38.64.05.7-.56.82-.21,2.55-.64,1.13-1.98,2.48-1.49,1.13-1.77,1.42-.59.55-2.9.9-1.14.48-.58.41-.72.69-1.38,1.55-1.79,2.27-.77,1.51-.33,1.25-1.12,1.79-1.68,2.47-.83,1.13-.33.22-.2-.12-1.44.27-2.5,1.13-2.63-1.75-2.88-2.38-1.63-1.25-.55-1.19-2.98-1.25-1.82-1.07Z"/>
  <path class="rpath" title="Puno" id="PE-PUN" d="M375.89,514.97l1.33.7,3.43.69.46,1.37-1.6,1.83-.92,2.52,1.83,1.83,2.97-1.37h1.6l1.6,2.52,2.52.46,2.97-1.14,1.37-2.52,1.63-1,.27.2,1.14,1.43h.35s.36.92.36.92l.84,1.85v3.02l-.21,1.21-.06.03-1.39,1.77-.23,2.48.3,2.03.57.69.06.92-1.23.89-1.83.93-2.71,2.21-4.13,4.94-2.13,4.22-.62.64-1.89.83-2.12,1.1-1.97,1.83-.84,1-1.2,2.42-.67.2-1.14.24-.66-.03-3.34-1.71-2.73-1.41-3.05-2.22-.54-.61-3.3-5.6.94-1.13.17-2.69.12-2.49,2.65-2.55-.88-.96-1.87-.32-.98-.41-2.22-2.14-3.41-3.64-.3-.84-1.13-3.44.05-.9.17-.74-.32-2.92-1.44-4.09-.62-.82-4.84-1.29-.2.06-.54-.54-2.02-.17-2.52.17-1.85.33-.15-.18-.8-.51-.87.12.31-1.08.18-.95-.37-.75-1.25-.93-1.69-2.82.24-1.3.84-1.34.14-.73-.23-.68-.43-.5-.63-.51-.79-.58-.65-.71-.93-1.26-.39-3.36.06-2.68-.17-1.49,1.51-.82.2-2.75v-.67s-.12-1.02-.12-1.02l-.2-.7-.57-.81-.31-.59-.23-3.57.19-.68.64-.95.43-.83-.55-3.43-1.49-2.23-.85-.21-.77-.85-.98-1.53v-.14s-.73-.74-.73-.74l.84-1.34,2.18-1.51.84-2.18.5-3.02,1.85-3.02,1.01-2.52.5-3.02.5-3.19-.67-3.02.17-2.01.34-2.35,2.69-1.18,2.35-2.69,1.01-1.85,2.35-2.86,2.69-3.02,3.19-3.53.17-3.53.32-4.49,2.03-.38,4.7.5,4.2,1.85,3.69,2.02,6.46,1.15.69.34,3.6-.31,3.69-.84,1.85-2.01,1.85-.84,3.36-1.34,2.52-.67,2.69-1.34,3.19-1.18,2.47-1.57,2.69-1.95-.41,3.26.2,3.47.61,1.43-1.02,4.49-1.65,2.72v2.15s-.05,1.77-.05,1.77l-.57,1.95-1.41,2.49-1.27,2.16,1.56,2.74.4,1.59.85,4.16.46.68.76.6.59.41-.27,2.6.61,2.24-2.24.82-1.63,1.22-.61,3.88-2.04,2.45-2.04,2.24-2.45,3.06-2.04,2.86-1.43,3.06.1,1.08-.26.26-.53,5.42,2.77,3.79,3.12,2.61.86.96,1.08,1.32-.19.89-.86.29-.84-.05-2.32,2.16-2.06,3.7-.2.43-1.16-.5-1.37-1.14-3.2-.23-1.14-2.29-1.83-.46h-2.29l-.69-2.74-2.52-2.06-2.29-.69-2.74-.69-2.29-.69h-2.52l-2.52.23-.46,1.37.46,1.37h2.06l2.06.23,2.74-.23,1.37.69.46,3.2-1.83,1.14-1.14,1.14.46,2.29,1.6.91v2.97l-1.37.23-.69,2.06-1.6.69-2.29.92.69,2.52.46,2.52.69,2.06,1.83-.23h1.37l1.6,1.37,1.14.46.91-1.83.91-.46.69,1.83.92,1.83h2.75l.04-.25Z"/>
  <path class="rpath" title="San Martin" id="PE-SAM" d="M137.97,180.38l1.56.04,1.25-.05.89-.09,1.61.51,3.26,2.24.52.93.49.89.67,1.9.25,1.18.72,1.44.63.96,1.6,1.12,1.59.65,1.78-.27,1.13-.51,1.14-.79.63-.5,2.9.29,3.1,2.82,2.25,2.82,2.26,1.13,3.1-1.97,1.82-1.26,1.44-.11,2.37-.02.94.12,2.9.61,2.1-1.6,3.95-.85,2.82,1.41,1.69,2.25-.28,2.82-1.41,1.64.31.71.11.97-.06.85-.3,1.53-.24,1.58-.2,2.28-.14,1.91-.04,1.09.09,1.26-.53,2.51-.29.9-.04.06-1.21.48-2.82.56-3.56.15-.34-.43-.85-.64-.86-.62-.88-.36-.94-.27-.94-.21-1.32.08-.6.19-1.55,1.55.85,6.77v2.82l-3.11,2.22-.18.72-.09.54-2.11.7-.12,2.02v2.45l.92,2.75,2.6,2.6.77,5.2.92,3.06,1.99,2.6.55,1.92h2.22l.75,1.6.36.68-1.8,1.67-1.41,2.54-.56,4.23.2.32-3.02,1.09-2.82,2.82.85,7.05.6,2.4-.55.89-.57.42-1.62-.19-.83-1.12-2.07-5.22-1.23-2.11-1.02-.37-1.46-1.18-.06.38-1.33-.67-1.13,1.41-1.13,2.26-1.41-.85-2.26-.85-3.1,1.13-2.25-.56-2.82.56-1.24.14.15.58h-4.58l-.29-.74-.61-.4-.94.04-.39.17-1.69-2.61,1.41-1.41,2.54-.85,3.1-.56.93-.23.02-.61-.23-1.07.69-.35-.85-3.1-1.13-1.69-1.69-2.54-3.38-.56-1.97-1.41-2.54.28-3.38,1.41h-.39l-.38-2.42-.5-3.19-1.18-1.01-1.23-.06-.06-.22-1.39-.22-.34-3.36-.17-2.85-.5-1.85-.2-2.9-.32-.15-1.06-.68-.5-1.04-.85-2.27-.13-1.68.84-1.66.18-.91-.49-.91-2.85-3.45-1.32-2.32-.48-.3-.5-.57-.39-1.16.05-1.2.54-1.55.52-1.11.42-3.2,1.71-1.44,1.69-.28,3.38.28,2.25,1.69,1.69-.85,1.69-1.97v-1.39l.28-.16.34-.73.32-1.26.27-.91.51-1.02.62-.76.76-.57,1.19-.74,1.16-.95.69-1.31-.52-2.09-.61-1.49-.39-.93-.8-1.29-1.57-1.65-2.88-1.01-1.25-.31-1.41-.33-1.45-.3-.89-.23-.85-.37-1.33-1.49-3.33-6.36-.47-1.02-.44-1.16.29-6.73.18-.93.37-.64.72-.96.8-.67.4-.2.31.6,1.83,1.36,1.01.61,1.88.61,2.01.64,1.57.73.97.78.68,1.06.62.71,1.33,1.47.85.44.94.27.9.22,2.81.2Z"/>
  <path class="rpath" title="Tacna" id="PE-TAC" d="M355.57,542.46l1.51.84.34,2.35v1.13l.56.11.45,1.12,1.68-.5.99-.06,3.21,5.44.54.61,3.05,2.22,2.73,1.41,3.34,1.71.66.03,1.14-.24.67-.2,2.1.27,1.84,1.75,1.04,1.04.02,1.61.03,2.62-4.18,3.75-1.73,1.54-.25-.02-.41.62-2.18.34-.84,1.18.34,2.35.67,1.68.84,3.69.17,3.36-1.34,3.02-1.68,3.02-3.19,3.02-5.04,1.01-5.37.34-3.36.67-.84-.84-.38-.72-.28.25-.32-.34-3.45-3.01-1.38-.93-.82-.34-1.27-.25-.59-.34-2.47-2.21-5.44-4.94-.83-1.25-1.14-.94-1.89-1.12-2.53-.77-2.31-1.66h1.41l2.18-1.34,2.86-1.17,1.85-1.68,1.68-3.86v-1.57l.61-.88,1.08-2.15,1.55-3.06,1.12-2.11.65-.98.53-.39,1.08-.29,1.12-.43.7-.44,2.02-2.35,1.81-2.23.03-.98-.23-.64-.53-1.26.13-.93.78-2.43,1.07-1.36,1.02-.58,1.63-.05.21.11,1.25-.34Z"/>
  <path class="rpath" title="Tumbes" id="PE-TUM" d="M33.14,126.2l-1.06-.46-1-.03-1.45.23-1.16,2.08.02.16-.33.21-.68.53-2.93,2.58-.39.07-.28.74-2.55.94-4.63.28h-4.25l-2.08-1.7-.71-2.14.88-.58,1.3-2.56,1.01-1.42,1.54-1.09,1.86-1.11.6-.73.25-1.35.31-1.02.45-.91.49-.61,3.06-1.98,2.3-1.2,1.54-.86,1.44-1.91.31-.59.5-1,.93-.38,1.88-.03.79-.04.7-.18.63-.47.07-.09,1.6.49,1.13.38.47,2.08.57,2.08.66,1.98.19,3.21-.57,2.36-.66,1.79-1.32,1.42-1.42.84Z"/>
  <path class="rpath" title="Ucayali" id="PE-UCA" d="M228.87,233.72l3.19.34,2.18,1.85,2.18,1.68.06,1.02.09.05.59.45.31.36-.48.05-.08.77.98.64,1.34,1.12,2.15,2.13.44.78.31.57.66.46,2.23.81.89.24.56.38.41.87-.14,1.38-.87,1.07-1.66-.21.16,2.42.5.61,1.49.54,1.87,1.05,1.8,3.37,1.25,4.12.49,1.73.26,1.6,1.75,1.49,2.37,1.67,1.89,4.89,2.32,2.32,1.04.17.82.21,1.02.45.55.45.45.67.34.88.29.91.35.55,2.02,3.06,1.7.9,1.39,1.88.36,1.85.1.67-.03.76-.2.94-.36.77-1.84,2.52-3.07,2.98-1.24,1-.8.66-.57,1.16,7.05.33,3.81.05.68-.02,3.56.05,3.95,1.07,6.57,1.21.98.29,2.25,1.31,1.57,4-.17,1.15-.37,1.23.29.93,1.08.6,1.48.83.5,1.01.45,1.69-.56,2.18-.56,1.56,1.35.07h4.29s1,0,1,0h16.68s2.92-.02,2.92-.02l2.3-.28,3.72-2.04.69-1.37.65-.85,4-1.39.92-.78.51-1.06,2.8-3.04,1.23-.79,2.07-1.29,4.36-3.71,1.76-1.62.66-.24-.37,1.73.07,1.67-.44,3.01-.14,4.84-.56.56-.41.88-.11,2.26v1.7s0,.55,0,.55l-5,7.94-1.83.77v.09l-2.45,2.35-3.82,3.98-3.52,1.38-2.14,2.14-1.07,1.38-1.07,3.21-.05,1.51-.18.04-.22,2.89-.61,1.84-1.99,1.84-1.38,1.38-8.72.31-3.5-.19-.16.07-.96.16-2.23.18h-1.75l-1.23-.2-.16-.13-2.1.27-2.37-.37h0s-1.62.22-1.62.22l-.31,1.53,1.22,1.07-.46,1.84-.76,2.75-1.38,1.99-.97.84-.72-.11-3.63,1.26-1.78,1.62-2.25,1.46-1.26.37-1.59-.42-2.25-.98-4.47-.51-2.53-1.36-.86-.71-.92-2.18-2.44.46-.69.56-.81.29-1.04.31-1.15.2-2.32.36-.78.11-5.05.6-.69-.28-.06-.04.27-3-.67-4.87-1.4-1.1.02-.08-1.8-.5-.34-2.85-.08-2.21-.13-.21-1.18-1.54-1.13-.9-4.11-1.25-.73,1.37-.67,1.33-.28.39.07,1.42v1.68l-.17,3.02-.67,2.18-1.51.84-3.19-.67-.84-2.52-.36-2.05-2.67.41-1.15.33-.68-.2-4.53.34h-3.36l-2.25-.8-.16-.48-.28-1.43-.4-2.08,1.28-.58,2.18-1.88.4-.53,1-1.16,2.24-2.22,1.83-.95.98-.32,1.04-.38.15-.68-.1-.13.99-.49.17-1.51-.5-1.34-.84-.5-1.51-1.51-.84-2.18.34-2.18.84-1.85.17-2.52-2.18-.34-1.51-1.18-2.02-2.69-.17-2.86-.67-2.52-1.25-.57-.62-1.72-.17-.46.19-2.79-1.01-2.01-.67-2.18-1.68-1.17-1.34-1.85-.17-1.85.67-1.85,1.34-1.68-.67-2.52-1.34-1.68v-3.36l-.57-2.44.51-2.43,1.89-3.67,1.53-1,.1-.83-.21-1.08-.48-1.1-.79-.77-.59-.31-1.23-.15-1.78-.13-1.09.08-.72.18-2.6,1.06-.32.22-.69,2.63-1.18,3.19-.17,2.18-.84,1.51h-1.51l-.84-1.68-2.35.34-2.02.39-.26.36-.41,2.95-1.68,2.02.17,3.36-1.34,1.34-1.68,1.51-2.52.67-1.82-.44-3.13,1.63-1.5,1.19-.61.32-1.68-.53-1.34-1.85-1.34-2.35-1.68-3.02-.5-1.01-.59-.52-.16-.89-.49-1.08-.53-.57-1.78-3.98-.99-3.68.51-3.04.1-2.6,1.14-.5.57-.47.59-.75,1.96-2.09,4.23-3.68h1.4l1.03.62.74.66.76.72.1.08,1.72-.43,1.11-.86v-1.95l.17-2.02v-2.85l.74-1.41,2.01-1.51,2.08.36,1.07.12.82-.91,1.51-1.34,1.68-2.02,3.69.34.96.58.39-.12.32.38,3.36.34,4.2-.34,1.85-1.01.8-1.87.57-.32,1.01-.71.57-.84.16-.83.12-2.83-.49-6.37-.22-1.33-.27-1.45.62-1.08,1.18-1.17,1.29-1.93.09.06.09.07.05-.21.67-1.18,1.18-.34,1.68.17,1.17,1.34,2.35.17Z"/>
  <path class="rpath" title="Lake Titicaca" id="PE-LKT" d="M372.42,487.99l2.52,2.06.69,2.74h2.29l1.83.46,1.14,2.29,3.2.23,1.37,1.14,1.16.5-2.64,5.62,2.61,6.99,2.58,6.9,1.16.6,2.52,1.68,2.24,1.65-1.63,1-1.37,2.52-2.97,1.14-2.52-.46-1.6-2.52h-1.6l-2.97,1.37-1.83-1.83.92-2.52,1.6-1.83-.46-1.37-3.43-.69-1.33-.7-.04.25h-2.75l-.92-1.83-.69-1.83-.91.46-.91,1.83-1.14-.46-1.6-1.37h-1.37l-1.83.23-.69-2.06-.46-2.52-.69-2.52,2.29-.92,1.6-.69.69-2.06,1.37-.23v-2.97l-1.6-.91-.46-2.29,1.14-1.14,1.83-1.14-.46-3.2-1.37-.69-2.74.23-2.06-.23h-2.06l-.46-1.37.46-1.37,2.52-.23h2.52l2.29.69,2.74.69,2.29.69Z"/>
</svg>